<?xml version="1.0" standalone="no"?>
<!DOCTYPE svg PUBLIC "-//W3C//DTD SVG 20010904//EN"
 "http://www.w3.org/TR/2001/REC-SVG-20010904/DTD/svg10.dtd">
<svg version="1.0" xmlns="http://www.w3.org/2000/svg"
 width="360.000000pt" height="400.000000pt" viewBox="0 0 360.000000 400.000000"
 preserveAspectRatio="xMidYMid meet">
<metadata>
Created by potrace 1.15, written by Peter Selinger 2001-2017
</metadata>
<g transform="translate(0.000000,400.000000) scale(0.100000,-0.100000)"
fill="#000000" stroke="none">
<path d="M1901 3701 l-1 -33 -42 6 c-60 9 -140 -17 -189 -61 -22 -20 -59 -70
-81 -110 -22 -40 -43 -73 -48 -73 -4 0 -7 -8 -6 -17 0 -12 -7 -19 -21 -21 -28
-4 -63 -47 -63 -77 0 -40 -120 -175 -156 -175 -8 0 -14 -3 -14 -7 0 -5 -22
-21 -50 -36 -60 -34 -147 -112 -185 -166 -15 -23 -35 -41 -44 -41 -14 0 -14
-2 -1 -10 13 -8 13 -10 -2 -10 -10 0 -15 -5 -12 -13 2 -7 -9 -39 -24 -72 -16
-33 -46 -103 -66 -155 -21 -52 -48 -114 -61 -136 -14 -23 -22 -44 -19 -47 11
-10 -57 -124 -104 -174 -66 -70 -101 -174 -105 -305 -2 -78 1 -98 21 -142 34
-73 66 -112 120 -143 53 -31 66 -44 122 -125 22 -31 50 -60 62 -63 13 -4 42
-16 65 -26 54 -25 115 -17 143 18 11 14 34 26 55 30 39 6 55 27 51 64 -3 31
-14 49 -29 49 -6 0 -2 -7 9 -15 13 -10 14 -14 5 -15 -10 0 -11 -3 -2 -14 29
-35 -39 -73 -110 -62 -70 11 -183 54 -218 83 -19 15 -44 33 -55 40 -28 17 -7
16 24 0 44 -23 149 -39 204 -31 28 3 66 8 84 9 38 2 56 15 21 15 -23 0 -23 1
9 29 41 38 43 81 6 110 -15 11 -30 18 -35 15 -5 -3 -5 5 0 19 5 13 5 30 1 37
-5 8 -7 17 -4 21 10 17 -30 32 -79 29 -66 -3 -88 -2 -94 4 -3 2 -8 71 -11 153
-7 146 -14 171 -38 124 -10 -19 -12 -12 -18 45 -4 38 -3 71 2 76 5 5 89 12
185 15 l176 6 16 36 15 36 -2 -40 -3 -40 50 -6 c46 -5 47 -9 5 -22 -8 -3 8 -4
36 -3 29 0 50 4 47 9 -2 4 4 7 15 7 16 0 29 16 49 61 1 4 -20 29 -47 55 -45
44 -51 56 -60 109 -17 102 6 215 47 234 48 22 97 13 147 -25 70 -53 98 -58
201 -33 112 26 183 54 215 84 14 13 43 30 65 39 21 9 42 20 45 25 3 4 30 21
60 37 30 16 60 36 67 44 9 10 12 11 13 3 0 -7 9 -13 20 -13 29 0 181 -78 203
-103 10 -12 43 -74 74 -137 62 -130 119 -229 141 -247 15 -13 72 -18 72 -8 0
3 -12 29 -27 58 -15 29 -28 58 -29 65 -1 8 -9 21 -17 30 -18 20 -81 143 -82
157 0 6 -6 17 -13 25 -7 8 -31 41 -53 72 -35 51 -153 148 -179 148 -6 0 -10 5
-10 10 0 6 -6 10 -13 10 -7 0 -25 13 -40 28 -28 29 -29 36 -24 136 2 49 -3 57
-44 70 -14 4 -17 21 -18 105 -2 144 -28 207 -107 262 -37 25 -45 37 -51 72
l-6 42 -13 -35 -12 -35 -2 30 -2 30 -13 -30 c-8 -16 -14 -24 -15 -16 0 11 -3
11 -15 1 -13 -11 -15 -8 -15 18 0 17 -6 32 -15 36 -11 4 -15 -1 -15 -18 0 -39
-15 -39 -27 1 l-11 38 -1 -34z m17 -145 c43 -18 79 -26 122 -26 33 0 76 -6 95
-14 77 -32 95 -130 51 -266 -21 -62 -22 -75 -10 -84 36 -28 64 -81 64 -123 0
-24 -5 -43 -11 -43 -5 0 -8 -4 -5 -8 3 -5 -1 -9 -9 -9 -8 0 -15 5 -15 10 0 6
-3 7 -7 4 -3 -4 -17 3 -31 15 -22 22 -24 22 -36 6 -9 -12 -27 -18 -52 -18 -42
0 -131 37 -152 63 -12 14 -29 15 -105 11 -77 -5 -98 -2 -127 13 -32 17 -35 21
-34 62 1 66 30 83 142 84 66 1 77 11 43 41 -21 19 -67 18 -64 -1 2 -7 -5 -17
-16 -22 -15 -9 -17 -7 -14 13 8 42 74 59 119 30 13 -9 27 -14 30 -11 3 3 -4 8
-15 12 -12 3 -19 11 -15 16 3 5 0 8 -8 7 -8 -2 -12 4 -10 17 17 95 2 146 -50
174 -23 13 -30 13 -53 1 -15 -8 -38 -34 -52 -58 -21 -35 -25 -52 -21 -93 3
-27 13 -58 22 -68 16 -18 15 -19 -33 -31 -51 -12 -65 -23 -66 -49 0 -8 -8 -19
-18 -25 -15 -9 -22 -7 -38 13 -18 22 -18 25 -3 42 9 10 36 26 59 35 29 11 42
21 38 30 -7 19 26 182 44 217 8 15 28 37 46 48 41 26 110 21 195 -15z m-40
-508 c9 -9 12 -9 12 0 0 8 14 3 38 -11 20 -13 52 -29 70 -36 33 -14 43 -31 18
-31 -8 0 -16 -6 -19 -14 -3 -8 -16 -17 -29 -19 -33 -6 40 1 82 8 l35 6 -23
-20 c-35 -31 -104 -37 -202 -16 -88 18 -147 42 -169 69 -17 20 -10 20 36 1 41
-18 57 -19 48 -5 -4 6 -10 8 -14 5 -5 -2 -16 4 -26 15 -10 11 -14 20 -9 20 5
1 -2 7 -16 15 -25 14 -25 14 14 15 28 0 37 -4 33 -13 -3 -8 -1 -20 4 -28 8
-12 10 -12 8 1 -3 31 2 39 29 43 52 8 68 7 80 -5z m-538 -143 c0 -8 -4 -15
-10 -15 -18 0 -83 -65 -97 -98 -7 -18 -18 -69 -24 -112 -9 -79 -60 -232 -84
-259 -10 -11 -20 -11 -48 -2 -63 21 -65 32 -18 124 24 45 69 134 101 197 67
131 108 180 151 180 19 0 29 -5 29 -15z m-278 -1016 c43 1 79 -3 83 -9 3 -5
-2 -10 -12 -10 -17 -1 -17 -1 0 -11 24 -14 21 -48 -5 -58 -13 -5 -27 -6 -32
-3 -5 3 -6 0 -2 -6 12 -19 -97 -26 -132 -8 -17 9 -38 16 -46 16 -49 0 -87 46
-72 86 6 14 16 16 74 9 37 -5 102 -7 144 -6z m136 -121 c10 -10 7 -15 -10 -25
l-23 -12 23 -1 c12 0 22 -6 22 -14 0 -8 -10 -22 -22 -31 -20 -13 -23 -14 -26
-1 -3 12 -7 11 -22 -4 -33 -33 -87 -42 -150 -24 -30 9 -70 23 -89 32 -35 17
-60 46 -50 57 8 8 53 8 124 0 45 -4 76 -1 125 13 81 24 83 25 98 10z"/>
<path d="M2066 3430 c-37 -23 -65 -74 -66 -117 0 -28 -4 -32 -32 -36 -33 -4
-33 -4 4 -5 40 -2 88 -20 88 -34 0 -4 9 -8 19 -8 11 0 21 -6 23 -12 7 -20 55
38 62 73 9 48 7 98 -5 122 -23 42 -48 47 -93 17z"/>
<path d="M2212 2838 c-6 -6 -2 -24 14 -53 14 -24 24 -59 25 -81 0 -100 -13
-289 -21 -299 -6 -7 -7 -15 -4 -18 4 -3 -9 -15 -27 -26 -27 -16 -30 -21 -14
-21 15 0 17 -2 6 -9 -10 -6 -10 -13 -2 -28 5 -11 7 -23 4 -27 -3 -3 -1 -6 6
-6 7 0 10 -4 6 -9 -3 -5 -1 -12 4 -16 6 -3 8 4 6 16 -3 15 0 19 11 15 8 -3 13
-2 10 3 -3 5 1 11 9 15 11 4 15 22 15 73 1 62 2 66 15 49 8 -11 15 -26 15 -33
0 -8 9 -23 19 -34 l19 -20 135 43 c126 41 135 45 124 63 -5 11 -14 22 -18 25
-5 4 -43 73 -84 154 -79 155 -97 178 -155 196 -19 6 -44 15 -55 20 -40 16 -53
18 -63 8z"/>
<path d="M2830 2275 c-6 -17 -14 -42 -17 -58 -7 -36 -16 -40 -59 -28 -50 14
-79 0 -111 -54 -15 -24 -40 -50 -55 -56 -40 -16 -76 -63 -83 -107 -4 -20 -13
-58 -21 -84 -14 -42 -13 -50 0 -77 9 -16 16 -40 16 -53 0 -47 12 -52 127 -57
188 -7 206 -6 250 17 88 45 139 145 136 267 -2 105 -32 176 -109 255 l-63 65
-11 -30z m-24 -108 c-6 -5 -2 -7 12 -4 14 3 20 1 15 -6 -4 -6 0 -8 10 -4 9 3
16 3 15 -1 -1 -4 2 -20 7 -35 13 -47 -8 -58 -88 -49 -37 5 -73 14 -80 21 -10
11 -8 11 10 2 33 -17 52 -12 21 5 -34 18 -37 51 -5 64 16 6 17 9 5 9 -9 1 -24
-9 -32 -21 -18 -25 -21 -17 -6 12 9 16 20 19 69 17 35 -1 54 -5 47 -10z m128
-113 c14 -36 6 -121 -16 -164 -25 -49 -36 -54 -163 -71 -104 -14 -174 0 -176
34 -1 18 -2 19 -6 4 -6 -24 -47 -18 -51 7 -7 34 25 40 181 37 92 -2 147 1 147
7 0 5 12 13 26 16 46 12 21 16 -112 19 -83 2 -139 8 -157 17 -32 15 -47 57
-26 71 8 5 9 9 4 9 -6 0 -17 -6 -24 -12 -11 -11 -11 -9 -2 10 15 28 30 28 145
-3 52 -14 116 -25 143 -24 26 0 42 3 35 6 -9 4 -7 11 10 28 28 28 34 29 42 9z"/>
<path d="M2423 1457 c-24 -9 -30 -16 -24 -27 14 -25 21 -94 11 -109 -7 -12
-11 -12 -24 -2 -18 15 -47 97 -38 106 14 15 -45 -9 -119 -47 -42 -21 -104 -63
-137 -93 -64 -58 -75 -85 -72 -166 1 -26 -4 -50 -10 -54 -7 -5 -5 -12 7 -24
10 -9 34 -48 53 -86 19 -38 48 -80 63 -94 33 -28 47 -59 53 -115 2 -21 13 -65
25 -97 18 -48 26 -59 44 -59 12 0 29 7 36 17 13 15 12 15 -8 2 -32 -20 -46 -2
-31 39 15 38 39 39 50 2 4 -15 5 -7 2 19 -6 39 -4 43 11 38 9 -4 29 -7 43 -7
22 0 34 -12 65 -60 38 -58 108 -130 126 -130 6 0 13 4 16 10 3 5 0 7 -8 4 -8
-3 -18 0 -23 7 -4 7 -3 14 4 17 6 2 8 10 5 18 -3 8 1 14 11 14 9 0 16 -7 16
-16 0 -10 6 -14 14 -11 8 3 20 -1 26 -9 14 -15 56 -19 64 -5 3 4 -5 6 -17 4
-17 -3 -27 4 -42 31 -28 48 -159 197 -163 185 -2 -6 -11 -4 -20 3 -34 28 7
-28 73 -99 42 -46 61 -73 50 -73 -8 0 -19 -10 -24 -21 -7 -20 -9 -19 -30 17
-43 73 -172 223 -186 217 -18 -6 -27 -35 -19 -57 6 -15 3 -15 -22 -4 -79 33
-55 63 66 84 45 8 94 21 108 29 33 17 92 73 92 86 0 6 5 7 12 3 8 -5 9 -2 5 9
-4 10 -2 30 4 45 6 15 14 59 18 97 7 63 5 79 -22 160 -16 50 -34 99 -40 110
-6 11 -16 38 -22 60 -13 44 -25 49 -72 32z"/>
<path d="M967 1294 c-15 -13 -25 -24 -22 -24 3 0 -5 -15 -18 -32 -61 -82 -79
-166 -56 -270 7 -35 12 -66 11 -70 -1 -5 3 -8 10 -8 6 0 9 -3 5 -6 -3 -3 5
-18 19 -32 13 -15 24 -30 24 -33 0 -13 -89 -87 -177 -148 -70 -47 -93 -69 -93
-85 0 -12 -5 -27 -11 -33 -7 -7 -9 -23 -5 -37 5 -19 13 -26 31 -26 15 0 25 -6
25 -14 0 -7 7 -20 16 -27 13 -11 20 -11 43 2 25 15 28 14 44 -8 10 -13 23 -23
30 -23 7 0 1 10 -13 21 -17 14 -19 19 -7 15 14 -5 16 -2 7 13 -7 14 -6 20 5
25 10 3 15 -1 15 -11 0 -14 2 -15 13 -4 10 10 9 15 -5 25 -15 11 -15 13 1 23
29 18 174 194 154 186 -20 -7 -186 -178 -218 -224 -21 -31 -48 -44 -65 -34 -7
4 0 16 16 30 22 19 25 26 15 38 -10 12 7 32 95 113 58 55 112 102 119 106 13
8 285 17 285 11 0 -2 -7 -19 -15 -39 -8 -19 -12 -40 -10 -47 3 -6 -4 -25 -15
-42 -21 -31 -22 -30 -24 20 -1 29 -2 30 -54 31 -66 1 -101 -20 -153 -95 -20
-29 -57 -74 -81 -100 -23 -26 -16 -19 17 14 33 34 73 78 88 98 25 33 33 37 73
37 l45 0 -17 -31 c-9 -18 -13 -41 -10 -55 7 -27 40 -48 62 -40 17 6 84 141 84
169 0 30 28 88 63 127 17 21 45 56 61 78 16 23 33 39 38 36 4 -3 8 3 8 12 0
22 22 84 30 84 3 0 4 15 2 33 -4 35 32 150 48 155 6 2 10 13 10 23 0 11 3 18
8 16 4 -3 7 10 8 29 0 31 -2 34 -35 40 -51 10 -293 -3 -391 -21 -106 -19 -98
-19 -102 9 l-3 25 -28 -25z"/>
</g>
</svg>
